# xmcd
#
# Track frame offsets:
# 150
# 23080
# 37422
# 54235
# 72190
# 84200
# 98470
# 116612
# 133955
# 150515
# 167777
# 185837
# 208122
# 224155
# 240645
# 258677
# 283725
#
# Disc length: 4085 seconds
#
#
# Revision: 7
# Processed by: cddbd v1.5.1PL2 Copyright (c) Steve Scherf et al.
# Submitted via: FreeRIP 2.944 
#
DISCID=000ff311
DTITLE=Louis Armstrong and Duke Ellington - The Great Summit - The Master Takes
DYEAR=2000
DGENRE=Jazz
TTITLE0=Duke's Place [Ellington-Roberts-Katz-Thiele]
TTITLE1=I'm Just A Lucky So And So [D. Ellington-M. David]
TTITLE2=Cottontail [Duke Ellington]
TTITLE3=Mood Indigo [Ellington-Bigard-Mills]
TTITLE4=Do Nothin' Till You Hear From Me [Ellington-Russell]
TTITLE5=The Beautiful American [Duke Ellington]
TTITLE6=Black And Tan Fantasy [B. Miley-D. Ellington]
TTITLE7=Drop Me Off In Harlem [D. Ellington-N. Kenny]
TTITLE8=The Mooche [D. Ellington-I. Mills]
TTITLE9=In A Mellow Tone [Duke Ellington]
TTITLE10=It Don't Mean A Thing (If It Ain't Got That Swing) [D. Ellington-I. Mills]
TTITLE11=Solitude [Ellington-DeLange-Mills]
TTITLE12=Don't Get Around Much Anymore [D. Ellingotn-B. Russel]
TTITLE13=I'm Beginning To See The Light [Ellington-Hodges-James-George]
TTITLE14=Just Squeeze Me [D. Ellington-L. Gaines]
TTITLE15=I Got It Bad (And That Ain't Good) [D. Ellington-P.F. Webster]
TTITLE16=Azalea [Duke Ellington]
EXTD=Original session produced by Bob Thiele\nRecorded at RCA Studios, New York City, on april 3 and 4, 1961.\n\nLuis Armstrong - trumpet, vocals\nDuke Ellington - piano\nTrummy Young - trombone\nBarney Bigard - clarinet\nMort Herbert - bass\nDanny Barce
EXTD=lona - drums YEAR: 2000
EXTT0=
EXTT1=
EXTT2=
EXTT3=
EXTT4=
EXTT5=
EXTT6=
EXTT7=
EXTT8=
EXTT9=
EXTT10=
EXTT11=
EXTT12=
EXTT13=
EXTT14=
EXTT15=
EXTT16=
PLAYORDER=
